<?xml version="1.0" encoding="utf-8"?>
<!-- Generator: Adobe Illustrator 24.2.3, SVG Export Plug-In . SVG Version: 6.00 Build 0)  -->
<svg version="1.1" id="Capa_1" xmlns="http://www.w3.org/2000/svg" xmlns:xlink="http://www.w3.org/1999/xlink" x="0px" y="0px"
	 viewBox="0 0 512 512" style="enable-background:new 0 0 512 512;" xml:space="preserve">
<style type="text/css">
	.st0{fill:#6F6F6F;}
</style>
<g>
	<path class="st0" d="M422.5,99V75c0-41.4-33.6-75-75-75h-184c-41.4,0-75,33.6-75,75v24H422.5z"/>
	<path class="st0" d="M118.5,319v122v26v15c0,16.6,13.4,30,30,30h214c16.6,0,30-13.4,30-30v-15v-26V319H118.5z M295.5,447h-80
		c-8.3,0-15-6.7-15-15s6.7-15,15-15h80c8.3,0,15,6.7,15,15S303.8,447,295.5,447z M295.5,383h-80c-8.3,0-15-6.7-15-15s6.7-15,15-15
		h80c8.3,0,15,6.7,15,15S303.8,383,295.5,383z"/>
	<path class="st0" d="M436.5,129h-361c-41.4,0-75,33.6-75,75v120c0,41.4,33.6,75,75,75h13v-80h-9c-8.3,0-15-6.7-15-15s6.7-15,15-15
		h24h304h24c8.3,0,15,6.7,15,15s-6.7,15-15,15h-9v80h14c41.4,0,75-33.6,75-75V204C511.5,162.6,477.9,129,436.5,129z M127.5,223h-48
		c-8.3,0-15-6.7-15-15s6.7-15,15-15h48c8.3,0,15,6.7,15,15S135.8,223,127.5,223z"/>
</g>
</svg>
