<?xml version="1.0" encoding="utf-8"?>
<!-- Generator: Adobe Illustrator 24.1.2, SVG Export Plug-In . SVG Version: 6.00 Build 0)  -->
<svg version="1.1" id="Capa_1" xmlns="http://www.w3.org/2000/svg" xmlns:xlink="http://www.w3.org/1999/xlink" x="0px" y="0px"
	 viewBox="0 0 512 512" style="enable-background:new 0 0 512 512;" xml:space="preserve">
<style type="text/css">
	.st0{fill:#6F6F6F;}
</style>
<path class="st0" d="M399.1,337.7c-23.7,0-45.1,10.2-60,26.3l-147.9-84.3c2.3-7.5,3.5-15.5,3.5-23.8c0-8.3-1.2-16.3-3.5-23.8
	L339,147.9c14.9,16.2,36.3,26.4,60.1,26.4c45.1,0,81.7-36.7,81.7-81.7c0-45.1-36.7-81.7-81.7-81.7s-81.7,36.7-81.7,81.7
	c0,6.7,0.8,13.2,2.3,19.4l-149.9,85.4c-14.7-14.3-34.8-23.1-56.8-23.1c-45.1,0-81.7,36.7-81.7,81.7s36.7,81.7,81.7,81.7
	c22.1,0,42.1-8.8,56.8-23.1l149.9,85.4c-1.5,6.2-2.3,12.7-2.3,19.4c0,45.1,36.7,81.7,81.7,81.7s81.7-36.7,81.7-81.7
	C480.8,374.4,444.1,337.7,399.1,337.7z"/>
</svg>
