<?xml version="1.0" encoding="utf-8"?>
<!-- Generator: Adobe Illustrator 24.1.2, SVG Export Plug-In . SVG Version: 6.00 Build 0)  -->
<svg version="1.1" id="Capa_1" xmlns="http://www.w3.org/2000/svg" xmlns:xlink="http://www.w3.org/1999/xlink" x="0px" y="0px"
	 viewBox="0 0 512 512" style="enable-background:new 0 0 512 512;" xml:space="preserve">
<style type="text/css">
	.st0{fill:#6F6F6F;}
	.st1{fill:#FAB444;}
</style>
<g>
	<path class="st0" d="M398.1,337.2c-44.8,0-81.2,36.4-81.2,81.2c0,44.8,36.4,81.2,81.2,81.2s81.2-36.4,81.2-81.2
		C479.2,373.6,442.8,337.2,398.1,337.2z"/>
	<path class="st0" d="M113.9,174.8c-44.8,0-81.2,36.4-81.2,81.2s36.4,81.2,81.2,81.2c44.8,0,81.2-36.4,81.2-81.2
		S158.7,174.8,113.9,174.8z"/>
	<path class="st0" d="M350.1,413.7c-3.4,0-6.9-0.9-10-2.7L151.8,303.7c-9.7-5.5-13.1-17.9-7.6-27.7c5.5-9.7,17.9-13.2,27.7-7.6
		l188.3,107.4c9.7,5.5,13.1,17.9,7.6,27.7C364,410,357.2,413.7,350.1,413.7z"/>
	<path class="st1" d="M398.1,12.5c-44.8,0-81.2,36.4-81.2,81.2c0,44.8,36.4,81.2,81.2,81.2s81.2-36.4,81.2-81.2
		C479.2,48.9,442.8,12.5,398.1,12.5z"/>
	<path class="st0" d="M306.3,120.3l-154.5,88.1c-9.7,5.6-13.1,18-7.6,27.7c3.7,6.6,10.6,10.2,17.7,10.2c3.4,0,6.9-0.9,10-2.7
		l153.9-87.8C316.9,145.6,310.2,133.6,306.3,120.3z"/>
</g>
</svg>
