<?xml version="1.0" encoding="utf-8"?>
<!-- Generator: Adobe Illustrator 25.0.0, SVG Export Plug-In . SVG Version: 6.00 Build 0)  -->
<svg version="1.1" id="Capa_1" xmlns="http://www.w3.org/2000/svg" xmlns:xlink="http://www.w3.org/1999/xlink" x="0px" y="0px"
	 viewBox="0 0 512 512" style="enable-background:new 0 0 512 512;" xml:space="preserve">
<style type="text/css">
	.st0{fill:#6F6F6F;}
</style>
<path class="st0" d="M256.8,404.9L197,375c-5.6-2.8-9.1-8.5-9.1-14.8V339c1.4-1.8,2.9-3.7,4.5-6c7.8-11,14-23.1,18.5-36.3
	c8.8-4.1,14.6-12.8,14.6-22.6v-25c0-6-2.3-11.9-6.3-16.4v-33.3c0.4-3.4,1.7-23.9-13.1-40.8c-12.9-14.7-33.7-22.1-62-22.1
	s-49.2,7.4-62,22.1c-14.8,16.9-13.4,37.4-13.1,40.9v33.3c-4,4.6-6.3,10.4-6.3,16.4v25c0,7.6,3.5,14.7,9.4,19.5
	c5.7,22.7,17.7,39.8,21.9,45.3v20.7c0,6.1-3.3,11.6-8.6,14.5l-55.8,30.5c-18.2,9.9-29.4,28.9-29.4,49.6v20.3
	c0,29.7,94.2,37.6,144,37.6s144-7.8,144-37.6v-19C288,433.9,276,414.5,256.8,404.9z"/>
<path class="st0" d="M469.5,366l-81.5-40.8c-7.7-3.8-12.5-11.6-12.5-20.2v-28.9c2-2.4,4-5.1,6.1-8.1c10.6-14.9,19-31.6,25.2-49.5
	c12-5.5,19.9-17.4,19.9-30.9v-34.1c0-8.2-3.1-16.2-8.5-22.4V85.8c0.5-4.7,2.4-32.6-17.9-55.7c-17.5-20-46-30.1-84.5-30.1
	c-38.6,0-67,10.1-84.5,30.1c-20.2,23-18.3,51-17.9,55.7v25.6c13,4.2,23.6,10.8,31.5,19.8c16.9,19.3,15.3,42.6,14.9,46.5v37.9
	c4.6,5.2,7.1,11.9,7.1,18.7v28.5c0,11.2-6.5,21.2-16.6,25.8c-0.9,2.5-1.8,5-2.8,7.5v8.1c0,8.3-4.5,15.8-11.8,19.8l-3.8,2.1
	c-0.9,1.3-1.8,2.6-2.7,3.9c-1.8,2.5-3.5,4.8-5.1,6.8V361c0,7.2,4,13.7,10.4,16.9l68.1,34.1c21.9,11,35.6,33,35.6,57.6v21.7
	c0,8.4-6.6,15.2-17.3,20.8c69-0.5,191.1-11.7,191.1-51.2v-26C512,405.5,495.7,379.1,469.5,366z"/>
</svg>
