<?xml version="1.0" encoding="utf-8"?>
<svg version="1.1" id="Layer_1" xmlns="http://www.w3.org/2000/svg" xmlns:xlink="http://www.w3.org/1999/xlink" x="0px" y="0px"
	 viewBox="0 0 128 128" style="enable-background:new 0 0 128 128;" xml:space="preserve">
<style type="text/css">
	.st0{fill:#6F6F6F;}
</style>
<g>
	<path class="st0" d="M27.75,97.5c-0.95-2.18-2.08-4.54-3.37-7.07c-1.29-2.53-2.69-5.09-4.19-7.66c-1.5-2.57-3.06-5.04-4.7-7.4
		c-1.63-2.36-3.27-4.44-4.9-6.25V97.5H0v-67h10.6v25.18c2.72-4.07,5.49-8.33,8.3-12.78c2.81-4.45,5.41-8.58,7.79-12.4h12.58
		c-3.2,5.43-6.43,10.65-9.67,15.66c-3.24,5.01-6.65,10.06-10.24,15.13c3.77,4.47,7.4,9.77,10.9,15.91c3.5,6.14,6.86,12.9,10.09,20.3
		H27.75z"/>
	<path class="st0" d="M55.71,30.5c0.82,2.13,1.76,4.75,2.83,7.88c1.07,3.13,2.18,6.51,3.34,10.15c1.16,3.64,2.3,7.36,3.44,11.17
		c1.13,3.8,2.2,7.38,3.2,10.73c1-3.35,2.07-6.93,3.2-10.73c1.13-3.8,2.28-7.53,3.44-11.17c1.16-3.64,2.27-7.02,3.34-10.15
		c1.07-3.13,2.01-5.75,2.83-7.88h9.65c0.45,4.45,0.87,9.43,1.26,14.94c0.38,5.51,0.72,11.25,1.02,17.21
		c0.29,5.96,0.57,11.94,0.81,17.93c0.25,6,0.46,11.64,0.65,16.92H84.38c-0.14-6.51-0.32-13.6-0.54-21.27
		c-0.23-7.67-0.57-15.4-1.02-23.2c-0.82,2.71-1.73,5.7-2.73,8.99c-1,3.29-1.99,6.57-2.96,9.86c-0.98,3.29-1.92,6.43-2.83,9.43
		c-0.91,3-1.68,5.56-2.32,7.69h-7.4c-0.64-2.13-1.41-4.69-2.32-7.69c-0.91-3-1.85-6.14-2.83-9.43c-0.98-3.29-1.96-6.57-2.96-9.86
		c-1-3.29-1.91-6.28-2.73-8.99c-0.45,7.8-0.79,15.53-1.02,23.2s-0.41,14.76-0.54,21.27H41.85c0.18-5.28,0.4-10.92,0.65-16.92
		c0.25-5.99,0.52-11.97,0.81-17.93c0.3-5.96,0.63-11.7,1.02-17.21c0.38-5.51,0.8-10.49,1.26-14.94H55.71z"/>
	<path class="st0" d="M128,84.54V97.5H96.55v-67h10.6v54.04H128z"/>
</g>
</svg>
